<?xml version="1.0" standalone="no"?>
<!DOCTYPE svg PUBLIC "-//W3C//DTD SVG 20010904//EN"
 "http://www.w3.org/TR/2001/REC-SVG-20010904/DTD/svg10.dtd">
<svg version="1.0" xmlns="http://www.w3.org/2000/svg"
 width="512.000000pt" height="512.000000pt" viewBox="0 0 512.000000 512.000000"
 preserveAspectRatio="xMidYMid meet">
<metadata>
Created by potrace 1.14, written by Peter Selinger 2001-2017
</metadata>
<g transform="translate(0.000000,512.000000) scale(0.100000,-0.100000)"
fill="#000000" stroke="none">
<path d="M583 3806 c-4 -5 0 -6 7 -1 8 5 11 4 7 -2 -7 -11 -97 -10 -115 1 -7
4 -12 3 -12 -2 0 -8 -74 -9 -105 -2 -5 1 -12 1 -15 0 -15 -7 -82 -5 -86 2 -3
4 -14 3 -24 -2 -11 -6 -23 -10 -27 -9 -18 3 -29 -2 -55 -25 -15 -12 -25 -26
-21 -30 3 -3 1 -6 -6 -6 -7 0 -9 -4 -6 -10 3 -5 2 -10 -3 -10 -6 0 -8 -10 -5
-22 3 -16 2 -19 -4 -10 -7 9 -10 0 -9 -27 0 -22 4 -37 8 -35 4 3 5 11 1 19 -3
8 -1 15 4 15 5 0 9 -13 8 -29 0 -17 -4 -27 -10 -23 -5 3 -4 -2 4 -11 7 -9 11
-25 8 -36 -2 -10 0 -26 5 -35 5 -9 5 -16 0 -16 -5 0 -9 -7 -9 -15 0 -8 3 -15
6 -15 3 0 7 -10 8 -22 7 -74 14 -125 20 -138 3 -8 7 -28 9 -43 1 -16 7 -41 12
-55 5 -15 8 -35 6 -44 -1 -10 2 -18 7 -18 6 0 7 -4 4 -10 -3 -5 -2 -10 4 -10
5 0 8 -10 6 -22 -3 -12 0 -27 6 -35 6 -7 9 -19 6 -27 -3 -8 1 -17 8 -20 8 -3
12 -14 10 -26 -2 -11 0 -20 6 -20 5 0 9 -9 9 -20 0 -11 4 -28 10 -38 14 -25
33 -76 32 -84 -1 -4 7 -24 18 -43 11 -20 20 -42 20 -50 0 -8 5 -15 10 -15 6 0
10 -9 10 -20 0 -11 4 -20 10 -20 5 0 9 -3 8 -7 -2 -12 16 -53 50 -110 17 -28
28 -54 25 -57 -4 -3 -2 -6 4 -6 5 0 18 -18 29 -40 10 -22 22 -40 25 -40 4 0
12 -13 19 -30 7 -16 16 -30 21 -30 5 0 9 -4 9 -10 0 -5 6 -18 14 -27 63 -78
114 -152 108 -159 -4 -4 -2 -4 5 0 7 4 17 -2 23 -14 6 -11 28 -37 50 -59 21
-21 37 -41 34 -44 -3 -3 4 -8 15 -12 12 -3 21 -13 21 -21 0 -8 5 -14 11 -14 6
0 17 -7 25 -15 9 -8 12 -15 7 -15 -4 0 4 -8 20 -18 15 -10 24 -22 20 -25 -3
-4 -1 -7 6 -7 6 0 26 -15 45 -32 18 -18 47 -44 66 -58 18 -14 44 -35 56 -47
13 -13 28 -23 34 -23 5 0 10 -4 10 -8 0 -5 12 -15 28 -23 15 -8 32 -18 38 -24
24 -22 65 -50 69 -47 3 1 15 -7 27 -18 12 -11 28 -20 35 -20 7 0 13 -3 13 -7
0 -5 23 -19 50 -32 28 -14 50 -29 50 -34 0 -4 5 -5 10 -2 5 3 10 1 10 -5 0 -7
7 -10 15 -6 8 3 15 1 15 -4 0 -6 6 -10 14 -10 7 0 19 -7 26 -15 7 -9 15 -13
18 -11 2 3 27 -6 55 -20 27 -14 59 -27 70 -30 11 -2 24 -9 27 -15 4 -6 10 -10
14 -9 4 1 16 0 27 -3 10 -3 22 -5 25 -5 3 0 17 -8 31 -17 17 -12 23 -13 18 -4
-5 8 1 5 13 -5 12 -11 22 -15 22 -11 0 5 5 4 11 -2 6 -6 17 -9 24 -7 7 3 16 1
19 -5 4 -6 13 -8 21 -4 8 3 15 1 15 -4 0 -5 12 -10 27 -11 15 -1 30 -7 34 -13
5 -8 8 -8 11 1 3 10 7 9 19 -2 8 -8 20 -13 26 -11 7 3 22 -1 34 -7 17 -10 20
-9 13 2 -6 10 -5 11 7 1 8 -7 31 -14 50 -16 19 -2 41 -7 48 -12 10 -6 12 -4 6
6 -7 11 -6 12 6 2 8 -6 38 -13 67 -14 41 -2 49 -5 41 -16 -16 -18 -4 -16 15 3
14 13 16 13 16 1 0 -12 21 -15 115 -16 112 -1 115 -1 131 24 9 14 21 22 27 18
6 -3 7 -1 3 5 -4 7 -2 12 3 12 6 0 10 3 10 8 -3 19 2 43 9 39 6 -5 7 77 2 144
-1 13 -1 27 -1 32 5 21 2 149 -3 154 -3 3 -1 12 5 20 9 10 8 13 0 13 -7 0 -9
5 -6 10 4 6 6 59 5 118 -1 131 -1 132 -12 132 -4 0 -8 6 -8 14 0 24 -52 49
-110 52 -30 1 -55 3 -55 4 0 3 -79 12 -110 14 -16 0 -32 4 -35 8 -3 3 -23 9
-45 12 -22 2 -57 9 -77 14 -20 5 -39 7 -42 4 -4 -3 -6 0 -6 6 0 7 -11 12 -24
12 -14 0 -28 5 -31 10 -3 6 -17 10 -30 10 -13 0 -27 5 -30 10 -3 6 -15 10 -26
10 -10 0 -19 4 -19 9 0 5 -8 8 -17 7 -10 -2 -21 2 -25 8 -4 6 -11 11 -15 12
-26 3 -63 18 -63 26 0 5 -4 7 -8 4 -5 -3 -18 2 -28 12 -11 9 -26 18 -33 20
-13 3 -126 73 -148 92 -7 6 -28 20 -48 31 -19 12 -35 25 -35 31 0 5 -5 6 -10
3 -6 -3 -10 2 -10 11 0 10 -3 14 -6 11 -4 -4 -15 3 -25 15 -11 11 -19 18 -19
15 0 -8 -158 153 -195 198 -16 20 -41 49 -55 63 -14 14 -18 22 -10 18 9 -5 8
-2 -2 7 -10 8 -15 17 -11 20 3 4 1 7 -5 7 -7 0 -12 6 -12 13 0 7 -9 19 -20 27
-11 8 -20 20 -20 26 0 7 -7 20 -16 28 -8 9 -12 16 -7 16 4 0 4 4 -2 8 -13 9
-58 92 -50 92 4 0 -1 7 -9 16 -9 8 -14 19 -11 24 3 4 -2 10 -10 14 -8 3 -12
12 -9 21 3 8 1 15 -6 15 -6 0 -8 5 -5 10 3 6 1 10 -5 10 -6 0 -8 5 -5 10 3 6
2 10 -4 10 -5 0 -8 9 -6 20 2 11 0 18 -6 15 -8 -5 -14 24 -10 48 1 4 -5 10
-13 13 -8 3 -12 12 -9 19 2 8 1 20 -3 27 -10 16 -15 37 -15 61 0 9 -4 17 -10
17 -5 0 -9 18 -9 40 0 22 -5 40 -11 40 -6 0 -10 10 -9 23 4 46 0 88 -8 83 -5
-3 -8 17 -8 44 1 28 -2 50 -6 50 -4 0 -3 11 2 24 5 13 6 27 2 31 -4 4 -8 11
-8 16 -1 5 -2 15 -3 22 -1 6 -15 28 -32 47 -17 19 -27 28 -23 20 6 -12 5 -13
-8 -3 -8 7 -18 10 -21 6 -4 -3 -7 -1 -7 6 0 8 -5 9 -18 2 -12 -6 -23 -6 -33 1
-11 8 -11 9 3 4 10 -3 19 -2 22 2 2 4 -41 7 -96 7 -55 0 -102 -4 -105 -9z
m112 -6 c-3 -5 -12 -10 -18 -10 -7 0 -6 4 3 10 19 12 23 12 15 0z"/>
<path d="M3085 3810 c-4 -6 -11 -8 -16 -5 -5 4 -15 3 -21 -2 -18 -11 -58 -12
-64 -1 -3 4 -11 5 -17 1 -17 -11 -57 -11 -63 -1 -3 4 -11 5 -17 1 -17 -11 -57
-11 -63 -1 -3 5 -11 5 -17 0 -14 -10 -47 -10 -64 1 -6 4 -14 3 -17 -1 -3 -5
-23 -8 -45 -7 -22 1 -38 -1 -36 -5 4 -7 -31 -40 -43 -40 -4 0 -9 -12 -10 -27
-1 -16 -7 -30 -12 -31 -6 -2 -7 -8 -4 -14 5 -8 12 -66 18 -155 1 -17 5 -35 9
-39 4 -4 2 -13 -4 -21 -9 -10 -8 -13 1 -13 9 0 9 -4 -1 -17 -10 -11 -10 -14
-1 -9 8 5 12 -2 12 -23 0 -41 0 -43 12 -65 7 -13 7 -16 -1 -12 -6 4 -4 -8 4
-27 8 -19 11 -37 8 -40 -3 -4 0 -14 8 -24 12 -15 12 -16 -1 -8 -12 6 -13 5 -2
-6 6 -7 12 -25 12 -40 0 -15 5 -31 10 -34 6 -3 10 -22 10 -41 0 -19 5 -34 11
-34 6 0 9 -9 6 -20 -3 -11 -1 -20 5 -20 6 0 8 -7 4 -15 -3 -8 -1 -15 4 -15 6
0 10 -11 10 -25 0 -14 5 -25 11 -25 6 0 9 -7 6 -15 -4 -8 -2 -17 4 -20 5 -4 7
-11 4 -16 -4 -5 -2 -9 3 -9 9 0 26 -55 23 -72 0 -5 4 -8 10 -8 6 0 9 -7 5 -15
-3 -8 -2 -15 2 -15 9 0 37 -70 34 -82 -1 -5 4 -8 12 -8 8 0 13 -6 13 -12 -2
-15 35 -92 46 -96 4 -2 7 -10 7 -18 0 -8 5 -14 11 -14 5 0 8 -4 4 -9 -3 -5 2
-16 10 -24 8 -9 15 -23 15 -31 0 -9 4 -16 8 -16 5 0 21 -22 36 -50 15 -27 32
-50 38 -50 6 0 9 -3 5 -6 -3 -4 1 -13 9 -21 8 -8 11 -19 8 -25 -4 -7 -2 -8 4
-4 7 4 12 3 12 -2 0 -4 9 -18 20 -30 12 -12 18 -22 15 -22 -2 0 4 -10 14 -22
11 -13 29 -34 41 -48 103 -123 216 -240 231 -240 7 0 10 -3 6 -6 -3 -4 21 -29
53 -57 33 -27 60 -54 60 -60 0 -5 7 -7 15 -3 9 3 15 0 15 -10 0 -8 5 -12 10
-9 6 3 10 2 10 -3 0 -5 21 -24 48 -42 26 -19 49 -38 50 -42 2 -4 10 -8 18 -8
8 0 14 -4 14 -10 0 -5 7 -10 15 -10 8 0 15 -4 15 -10 0 -5 7 -10 15 -10 8 0
15 -4 15 -10 0 -5 7 -10 15 -10 8 0 15 -5 15 -11 0 -5 5 -7 10 -4 6 3 13 -1
16 -9 3 -9 10 -14 14 -11 5 3 15 -2 23 -10 9 -8 23 -15 32 -15 9 0 13 -4 10
-10 -3 -5 3 -10 14 -10 12 0 21 -5 21 -12 0 -6 3 -8 6 -5 4 4 20 -3 35 -14 16
-11 29 -17 29 -12 0 4 4 3 8 -2 4 -6 21 -16 37 -24 17 -7 38 -17 47 -22 10 -5
25 -9 33 -9 8 0 15 -5 15 -11 0 -5 4 -8 9 -4 5 3 12 1 16 -5 4 -6 11 -8 16 -5
5 4 9 1 9 -6 0 -7 3 -10 6 -6 4 3 20 -1 36 -9 16 -8 33 -12 38 -9 6 3 10 -2
11 -12 0 -11 3 -13 6 -5 4 9 8 10 18 2 8 -6 25 -12 39 -14 13 -1 32 -8 40 -16
9 -7 16 -9 16 -4 0 5 5 2 10 -6 8 -12 10 -12 10 -1 0 9 4 10 13 4 15 -13 129
-41 185 -46 12 -1 22 -6 22 -10 0 -5 5 -5 10 -2 6 4 18 1 27 -7 12 -9 15 -9 9
0 -9 15 -1 15 25 1 12 -6 47 -11 79 -12 32 -1 56 -5 53 -9 -2 -5 -8 -6 -12 -4
-4 3 -12 2 -18 -2 -7 -4 51 -9 128 -10 111 -3 139 -1 137 10 -2 7 2 12 7 11 6
-1 22 15 35 34 l25 37 2 318 c2 278 0 318 -13 318 -8 0 -13 4 -10 8 14 23 -53
61 -104 58 -19 -2 -43 1 -52 6 -12 6 -18 5 -18 -2 0 -6 -5 -8 -10 -5 -6 4 -8
9 -6 13 2 4 -22 7 -55 7 -32 -1 -59 3 -59 8 0 5 -9 7 -20 4 -11 -3 -20 -2 -20
1 0 4 -10 8 -22 8 -13 1 -34 5 -48 9 -14 3 -31 7 -37 7 -7 1 -13 5 -13 9 0 4
-8 6 -17 4 -10 -1 -31 4 -46 12 -16 8 -35 12 -42 9 -7 -2 -16 2 -19 11 -4 8
-13 13 -21 9 -8 -3 -15 -1 -15 5 0 6 -4 7 -10 4 -5 -3 -10 -2 -10 3 0 5 -6 9
-12 9 -19 0 -202 93 -210 107 -4 6 -8 7 -8 2 0 -5 -9 -1 -20 9 -11 10 -20 15
-20 11 0 -4 -7 0 -17 9 -9 9 -35 28 -57 42 -23 14 -44 31 -48 37 -4 6 -8 8 -8
4 0 -12 -40 31 -40 43 0 5 -4 8 -9 4 -5 -3 -58 42 -118 100 -59 58 -104 105
-100 105 4 0 2 6 -5 14 -7 8 -17 11 -22 8 -5 -3 -6 -1 -3 5 3 5 -7 24 -23 41
-16 18 -37 45 -47 62 -9 16 -21 30 -25 30 -4 0 -8 9 -8 20 0 11 -4 20 -8 20
-5 0 -19 20 -32 45 -13 25 -27 45 -32 45 -5 0 -7 4 -3 9 3 5 -2 16 -10 25 -9
9 -18 25 -20 37 -2 12 -9 27 -15 33 -5 7 -7 16 -3 19 3 4 2 7 -4 7 -10 0 -20
26 -29 69 -1 8 -7 17 -11 20 -5 3 -10 17 -10 30 -1 13 -6 27 -10 30 -8 6 -14
24 -16 53 -1 10 -5 18 -10 18 -5 0 -7 7 -4 15 4 8 2 17 -2 20 -5 3 -12 29 -16
58 -4 28 -10 56 -13 62 -6 10 -10 37 -15 113 -2 23 -6 45 -10 48 -3 3 -3 11
-1 18 3 7 0 25 -6 40 -6 17 -6 25 0 21 6 -3 10 -2 10 4 0 5 -5 13 -10 16 -6 4
-8 11 -5 16 4 5 1 9 -4 9 -6 0 -11 7 -11 15 0 8 -7 15 -16 15 -8 0 -13 4 -10
9 7 11 -49 25 -64 16 -5 -3 -10 -2 -10 4 0 5 6 11 13 14 6 2 -7 3 -31 3 -28
-1 -41 -5 -38 -13 3 -7 -1 -10 -9 -6 -8 3 -13 8 -11 12 3 4 -11 7 -30 7 -23 0
-33 -4 -30 -13 3 -7 -1 -10 -9 -6 -8 3 -12 9 -9 14 3 5 3 9 0 9 -3 0 -8 -5
-11 -10z m75 -6 c0 -8 -19 -13 -24 -6 -3 5 1 9 9 9 8 0 15 -2 15 -3z m80 0 c0
-8 -19 -13 -24 -6 -3 5 1 9 9 9 8 0 15 -2 15 -3z"/>
</g>
</svg>
